<?xml version="1.0" encoding="UTF-8"?>
<svg id="Layer_1" xmlns="http://www.w3.org/2000/svg" version="1.1" viewBox="0 0 720 576">
  <!-- Generator: Adobe Illustrator 29.6.1, SVG Export Plug-In . SVG Version: 2.1.1 Build 9)  -->
  <defs>
    <style>
      .st0 {
        fill: #231f20;
      }

      .st1 {
        fill: #d1ff00;
      }
    </style>
  </defs>
  <g>
    <path class="st0" d="M242.25,259.42c-16.34-56.77-58.23-57.05-58.23-57.05-33.7-.97-60.36,26.23-55.83,60.86,8,30.71,34.71,37.59,51.19,37.75,16.48.16,30.71-13.44,35.03-23.67.32,19.04,2.35,38.34-7.78,65.1-6.01,15.89-17.27,21.82-22.63,23.16-5.36,1.34-14.06,1.74-23.16-1.87-9.1-3.62-11.78-10.18-12.59-13.39-.8-3.21,4.28-5.62,10.71-8.97,6.43-3.35,5.49-16.07,4.15-18.61-1.34-2.54-4.36-7.62-11.5-8.1-6.55-.44-13.82,2.94-17.1,9.94-3.28,7-3.28,16.5,3.57,24.52,30.54,35.64,64.05,11.96,75.96,1.59,12.43-10.84,39.98-50.36,28.21-91.26ZM184.02,297.67c-19.15,0-27.34-20.93-27.34-46.75s7.7-46.75,27.34-46.75,27.34,20.93,27.34,46.75-8.2,46.75-27.34,46.75Z"/>
    <path class="st0" d="M353.29,298.69l-1.89.2s.11,16.01-1.27,26.29c-1.38,10.28-10.08,17.59-23.33,16.8-13.24-.79-17.07-12-40.13-13.64-28.38-2.02-37.56,27.28-37.56,27.28,0,0,.3-44.53,37.44-53.89,39.84-10.04,46.18-17.08,50.13-20.44,3.95-3.36,15.81-13.05,14.63-36.37-1.19-23.33-18.78-34.2-29.65-38.35-10.87-4.15-40.33-9.88-59.3,5.14-18.98,15.02-14.49,34-14.49,34l.06.03c.67,8.42,7.7,15.04,16.29,15.04,9.03,0,16.35-7.32,16.35-16.35,0-5.29-4.35-9.03-8.69-11.78-.65-.47-1.39-.9-2.15-1.3-2.28-1.32-4.34-2.38-5.5-3.26-.44-.33-.89-.6-1.34-.8-.65-.71-1.08-1.53-1.15-2.51-.29-4.04,1.84-19.54,28.26-19.32,34.32.28,30.57,43.55,30.57,43.55,0,0,6.5,33.74-35.96,49.22-42.99,15.67-37.19,67.08-37.19,67.08h1.71s-.4-5.93,3.36-13.44c7.51-15.02,24.91-1.78,31.63,1.58,6.72,3.36,18.19,16.01,37.16,13.44,18.98-2.57,25.9-21.15,30.05-34.4,4.15-13.24,1.98-33.8,1.98-33.8Z"/>
  </g>
  <g>
    <path class="st1" d="M471.41,248.45c-.15-4.85.06-11.41.28-18.35.4-12.82.86-27.35-.71-36.27-.27-1.54-.61-2.29-1.18-2.58-.57-.3-1.15-.03-1.7.23-.45.22-.93.44-1.48.44h0c-1.51,0-3.13-.24-4.7-.47-3.25-.48-6.32-.93-8.36.59-1.08.81-1.74,2.08-2,3.87-1.71,11.77-1.33,35.01-1.03,53.69.13,8.15.26,15.85.18,21.35-.04,2.88-.34,6.06-.64,9.13-.3,3.15-.62,6.41-.63,9.32-.04,7.43.3,14.97.62,22.26.33,7.37.67,14.98.62,22.49-2.75-3.88-4.97-8.82-6.95-13.22l-.65-1.44c-5.15-11.36-10.25-22.89-15.18-34.03-8.98-20.29-18.27-41.27-28.08-61.84-.82-1.71-1.72-4.36-2.69-7.16-1.31-3.81-2.66-7.75-3.93-9.7-.16-.24-2.66-2-3.03-2.06-1.88-.31-4.09-.08-6.22.15-1.33.14-2.59.26-3.69.26-.09,0-.28-.13-.44-.23-.36-.23-.86-.55-1.54-.55h-.02c-.15,0-15.27.4-16.08,1.4-.32.4-.33,1.46.21,8.64.18,2.38.35,4.62.33,5.44-.39,23.07-.63,43.14-.72,61.38-.04,7.53.07,15.98.18,24.93.27,22.42.58,47.83-1.3,66.85l-.02.21.12.17c.77,1.12,1.36,1.61,1.96,1.65.56.04.94-.36,1.17-.62.07-.07.17-.19.15-.2,2.12.06,3.91.32,5.63.57,1.67.25,3.29.48,5.03.48,1.11,0,2.26-.1,3.5-.35.4-.08.84,0,1.28.08.97.17,2.31.41,2.84-1.66.52-2.05.24-13.97-.11-27.06-.1-3.65-.18-6.54-.18-7.75,0-7.48.1-15.2.21-22.66.11-7.48.22-15.22.21-22.77,0-5.47.18-11.96.37-18.84.41-14.62.88-31-.35-42.79.77,1.59,1.92,3.53,3.25,5.73.79,1.3,1.48,2.43,1.71,2.96,2.69,6.29,5.49,12.59,8.2,18.69,1.81,4.08,3.63,8.17,5.43,12.29,3.92,8.97,7.75,18.15,11.45,27.03,8.76,21.03,17.83,42.78,28.81,63.3l.14.26.29.04c2.21.28,27.46,2.19,29.31.49.79-.73.66-4.42.04-12.96-.18-2.51-.34-4.68-.3-5.46,1.39-30.68,1.51-58.31.4-95.35ZM365.33,299.95l.13-91.82,1.91.13-2.03,91.69ZM373.37,355.26c.07,5.49.17,13.55.04,15.54-.28-.22-.68-.67-.94-1.22-.2-.42-.26-.8-.16-.99l.06-.12,2.04-65.03c1,12.33.16,24.71-.65,36.76-.15,2.27-.31,4.53-.45,6.81-.04.68,0,4.02.05,8.25ZM366.24,367.32c.51-.21.89-.66,1.14-1.33.18-.48.43-5.54,1.07-21.63.14-3.61.25-6.41.29-7.06,1.22-19.41,1.17-40,1.13-59.9-.02-9.43-.04-19.18.07-28.54.05-4.08.28-8.37.52-12.92.41-7.83.84-15.92.33-23.14-.09-1.28-.59-2.45-.99-3.39-.23-.54-.57-1.35-.48-1.54,0-.01.22-.23,1.64-.05,1.39,8.34,2.51,15.92,2.39,23.85-.03,1.78-.33,3.82-.62,5.8-.3,2.03-.61,4.13-.64,6.04-.32,18.27-.85,39.61-1.36,60.25-.57,22.72-1.15,46.2-1.47,66.24-.2,0-.4,0-.6,0-.15,0-.29,0-.44,0-1.68,0-3.01,0-3.61-.68-.37-.42-.52-1.14-.45-2.21.69.28,1.41.48,2.09.2ZM374.32,207.83c1.01-.05,1.8-.06,2.12.29.22.24.3.72.27,1.44l-2.38-1.74ZM374.31,210.34c2.45,2.83,2.45,5.79,1.88,9.42l-1.88-9.42ZM377.82,347.43c-.03.74.06,4.39.17,8.6.15,5.66.37,14.22.24,14.9-.08.2-.18.24-.28.26-.24.04-.52-.1-.62-.22-.81-1.62.25-23.72.95-38.34.08-1.59.15-3.11.22-4.56-.2,6.71-.42,13.16-.68,19.36ZM467.46,197.48c-.07-.18-.13-.4-.19-.67-.19-.89-.15-1.63-.05-1.94.06.05.15.14.27.27.04.39.03,1.52-.03,2.33ZM390.04,222.04c-2.07-2.55-4.42-5.6-5.92-8.66,2.33,2.15,4.64,4.48,5.92,8.66ZM379.77,208.94c-.37-.36-.46-.73-.29-1.11.63.2,1.45.98,1.93,1.53l.05.16c-.56.1-1.27-.16-1.7-.58ZM380.18,211.73l.02-.13c1.25,1.71,8.05,13.94,9.37,16.44,12.16,23.04,22.26,48.7,32.03,73.51,3.69,9.37,7.51,19.06,11.33,28.33.87,2.11,1.85,4.21,2.83,6.25-1.55-2.78-2.98-5.67-4.42-8.6-7.91-16.21-15-33.4-21.85-50.03-7.4-17.96-15.06-36.54-23.83-54.06-.56-1.13-1.37-2.27-2.22-3.48-1.89-2.69-3.84-5.47-3.26-8.23ZM453.59,357.81c-.72.01-1.68-.01-2.03-.06-1.03-1.19-7.24-12.58-8.63-15.24-3.17-6.06-6.12-12.89-9.12-21.15l19.78,36.45ZM457.53,315.63l-.68-27.8c.66,8.83.88,18.06.68,27.8ZM458.69,358.53c-.69-.82.15-2.85.9-4.65.59-1.43,1.15-2.78,1.21-3.92.08-1.68-.06-3.75-.2-5.76-.12-1.7-.24-3.45-.22-4.88.32-18.38-.25-35.95-.81-52.94-.33-10.03-.67-20.4-.83-30.97-.07-4.77.25-12.19.59-20.05.57-13.17,1.22-28.09.23-35.41-.48-3.55-1.42-3.58-1.73-3.6-.01,0-.03,0-.04,0-.74,0-1.25.86-1.69,2.85-1.04,4.71-1.15,13.11-1.28,21.99-.04,3.07-.09,6.17-.17,9.11l-.02-33.74c.1-.12.34-.31.91-.5,1.87-.63,4.89-.55,5.53-.34,1.03,2.4-.15,31.13-.65,43.47-.19,4.66-.33,8.02-.34,9.23-.14,13.26.59,26.22,1.31,38.76.46,8.17.94,16.62,1.18,25.09.03.93.05,2.6.09,4.76.31,20.56.8,34.56,2.17,36.04.22.23.44.45.67.55.02.98-.17,3.28-.88,4.45-.13.21-.33.47-.58.52-3.65.83-4.92.41-5.33-.08ZM463.82,285.22c-.95-23.79-1.36-47.32.65-67.81.78-2.19.16-8.5-.39-14.06-.31-3.13-.66-6.65-.49-7.53.11-.01.29.01.37.05,4.55,2.98,1.66,45.16.43,63.18-.34,4.96-.61,8.88-.65,10.64-.13,5.15-.07,10.35.08,15.53ZM464.49,300.52c.07,1.25.13,2.49.2,3.73.36,6.72.73,13.54.9,20.39-.24-5.64-.51-11.44-.79-17.36-.11-2.25-.21-4.51-.32-6.76ZM451.92,301.7l1.17-15.46.56,41.83-1.73-26.37ZM446.58,336.39l.19.31c1.39,2.29,3.49,5.76,6.34,5.82.13,0,.25,0,.37-.02l.47,7.15,1.12-.04-.11-8.13c.23-.37.41-.82.55-1.35l.06,12.9c-6.36-10.51-12.92-22.53-20-36.68-8.28-16.54-14.43-29.24-19.36-39.95-3.49-7.57-6.48-15.39-9.37-22.96-4.74-12.4-9.64-25.22-16.84-37.25-.52-.87-2.01-2.66-3.46-4.39-1-1.19-2.29-2.74-2.84-3.52,1.55-.27,5.99-.55,7.28-.47,0,.17,0,.39,0,.63,0,.97.02,2.31.25,3.07,2.86,9.4,7.7,18.5,12.38,27.3,2.57,4.83,5.23,9.82,7.47,14.73,4.24,9.26,8.4,20.12,12.81,31.62,7.13,18.6,14.5,37.82,22.68,51.24ZM444.25,357.81c-.29,0-.74-.04-.85-.14-.47-.49-2.25-4.9-3.53-8.1,2.21,3.35,4.39,7.12,4.38,8.24ZM468.99,298.34c.27,3.8.54,7.45.13,11.15-.11-1.93-.23-3.86-.35-5.79-.92-15.05-1.87-30.56-.24-45.82.11,1,.22,2,.33,2.99.51,4.53,1.05,9.23,1.05,13.76,0,2.72-.32,5.46-.64,8.11-.29,2.43-.58,4.94-.63,7.43-.05,2.78.15,5.53.34,8.18ZM380.87,225.36c-.24-.07-.72-.13-1.23.4-1.11,1.14-.98,10.1-.36,26.23.12,3.14.22,5.63.21,6.71-.05,19.62-.25,37.43-.6,53.74-.24-5.73-.81-11.64-1.37-17.38-.62-6.34-1.26-12.9-1.44-19.2-.64-22.43.33-40.04,3.05-55.28,1.17,1.68,3.22,4.82,4.07,6.37-.35-.09-.73-.09-1.06.17l-.05.04c-.19-.7-.55-1.58-1.22-1.79Z"/>
    <path class="st1" d="M594.95,275.72c-.11-6.22-.21-12.09-.07-17.39.47-18.2-4.97-33.17-15.74-43.3-11.32-10.65-27.99-15.34-48.2-13.58-42.13,3.68-46.35,30.41-47.48,64.97-.08,2.47-.18,4.98-.27,7.53-1.13,29.85-2.41,63.69,16.59,81.4,8.61,8.03,20.47,11.99,36.07,11.99,3.72,0,7.65-.22,11.79-.67,48.84-5.29,47.97-54.8,47.33-90.95ZM567.06,348.36c-5.67,6.53-13.68,10.59-22.65,11.79,7.63-1.9,15.31-6.96,21.82-11.24.28-.18.56-.37.83-.55ZM508.46,225.4c.56-.8,1.21-1.54,1.95-2.23l-1.95,2.23ZM582.21,298.3c.02,10.59.07,28.33-8.27,38.66-1.27,1.58-2.75,3.31-4.11,4.85l6.01-15.65c1.65-4.3,2.7-8.81,3.12-13.4l2.7-29.84c.52,3.67.72,7,.6,10.1-.05,1.45-.05,3.23-.04,5.28ZM574.86,228.45c-3.29-5.63-9.73-9.04-15.96-12.34-2.95-1.56-5.76-3.05-8.21-4.74,5.87.66,10.55,2,15.86,5.83,8.48,6.11,15.5,16.6,17.46,26.09,2.38,11.52,2.93,25.67,1.55,37.98-.49-3.09-1.22-6.14-1.93-9.13-.78-3.24-1.58-6.58-2.04-9.87-.48-3.41-.66-6.66-.84-9.8-.46-7.95-.89-15.47-5.89-24.02ZM502.15,230.58l-6.04,19.73c-.17-8.58,1.82-15.07,6.04-19.73ZM497.9,331.72c-5.45-16.94-3.31-37.88-1.41-56.59.21-2.07.42-4.11.61-6.11.29,4.23.75,8.45,1.21,12.59.55,4.99,1.12,10.16,1.34,15.14.21,4.64-.35,9.82-.94,15.29-.71,6.64-1.44,13.45-.82,19.68ZM502.98,311.73c.32-4.64.64-9.44.5-14.21-.16-5.23-.72-10.75-1.25-16.1-1.23-12.31-2.51-25.03.52-36.74,2.68-10.36,16.38-30.43,28.84-31.78,7.33-.79,21.5,4.59,27.54,9.38,6.53,5.18,17.59,19.38,18.31,56.23.45,23.02-3.7,47.36-10.31,60.58-7.71,15.41-29.91,17.74-46.93,11.08-19.33-7.56-18.35-21.88-17.22-38.46ZM518.1,353.94c1.93.18,8.8,3.06,12.64,4.67,1.88.79,3.26,1.36,4.21,1.73-2.82-.24-5.69-.76-8.56-1.55-.79-.22-6.38-3.1-6.95-3.58-.75-.63-1.13-1.04-1.33-1.28ZM569.64,214.88c-9.72-7.01-19.02-7.14-30.77-7.28.77-.6.97-1.01.78-1.43-.4-.9-1.95-.73-11.43,2.13-1.37.41-2.45.74-2.89.84-1.45.33-2.72.39-4.07.45-2.1.1-4.27.2-7.06,1.39-3.05,1.31-19.41,15.17-19.87,18.68-.06.49-.23,1.77.63,2.14,1.09.46,2.75-.97,6.6-5.72.4-.5.69-.86.81-.97l.2-.2c3.24-3.12,7.36-7.08,11.71-9.61-7.84,6.25-21.49,19.43-22.87,25.02-.22.88-.13,1.6.25,2.12.33.44.84.23,1.34,0,.13,2.34-.39,11.18-.57,13.32-.42,5.17-.97,10.24-1.49,15.14-2.07,19.32-4.03,37.57,1.58,58.63,3.62,13.6,15.02,28.22,32.86,32.99-14.42-1.8-27.94-12.85-33.3-23.81-6.91-14.16-5.94-55.66-4.75-79.13,1.6-31.37,9.31-51.43,42.78-54.54,3.01-.28,5.94-.42,8.78-.42,14.77,0,27.03,3.77,35.78,11.09,8.89,7.43,14.01,18.19,15.21,32,.39,4.45.73,10.81.93,18.17-.03-.5-.07-1-.11-1.5-1.82-24.07-8.91-40.72-21.07-49.49ZM562.45,356.91c14.76-9.97,21.43-20.02,24.61-37.08,1.35-7.26,3.19-19.09,3.87-32.54-.35,18.82-1.92,38.4-5.91,48.11-6.52,15.86-19.02,25.5-35.39,27.4l12.83-5.9Z"/>
    <path class="st1" d="M535.4,350.42c.61.03,1.22.04,1.85.04,10.38,0,22.87-3.85,28.77-14.8,9.16-17.01,6.75-63.36,5.73-83.15-.64-12.43-5.11-22.82-12.59-29.25-6.96-5.99-16.13-8.47-27.25-7.39-22.49,2.2-24.82,34.31-25.94,49.73l-.06.79c-1.1,15-4.01,54.84,1.5,67.71,4.05,9.47,14.78,15.72,27.99,16.31ZM510.7,331.62c-3.4-8.21-3.57-30.67-.53-66.77l.21-2.59c1.16-14.65,3.11-39.17,21.67-42,8.97-1.37,16.66.44,22.83,5.36,7.25,5.79,11.9,15.67,12.73,27.11,1.73,23.66,2.52,71.69-6.87,84.1-5.71,7.55-16.3,11.33-27.63,9.87-10.69-1.37-19.07-7.01-22.41-15.09Z"/>
  </g>
</svg>